<?xml version="1.0" standalone="no"?>
<!DOCTYPE svg PUBLIC "-//W3C//DTD SVG 20010904//EN"
 "http://www.w3.org/TR/2001/REC-SVG-20010904/DTD/svg10.dtd">
<svg version="1.0" xmlns="http://www.w3.org/2000/svg"
 width="1120.000000pt" height="597.000000pt" viewBox="0 0 1120.000000 597.000000"
 preserveAspectRatio="xMidYMid meet">

<g transform="translate(0.000000,597.000000) scale(0.100000,-0.100000)"
fill="#000000" stroke="none">
<path d="M6916 5024 c-19 -19 -20 -52 -3 -119 11 -43 19 -53 52 -70 22 -11 45
-26 51 -34 6 -7 35 -14 67 -16 31 -2 61 -7 67 -10 7 -4 18 2 26 14 10 14 26
21 48 21 18 0 36 3 40 8 4 4 13 7 19 7 7 1 11 7 9 14 -1 7 2 9 8 6 6 -4 20 1
30 10 15 13 17 22 10 36 -10 17 -18 18 -68 3 -16 -5 -22 -3 -20 7 2 7 -5 14
-14 17 -17 3 -37 -12 -76 -62 -21 -28 -23 -28 -41 -12 -22 20 -77 24 -93 8
-19 -19 -28 -14 -28 13 0 18 -8 29 -25 37 -22 10 -24 13 -10 21 10 5 22 4 32
-5 14 -11 16 -11 10 4 -3 10 1 22 10 30 14 11 16 11 10 -4 -4 -12 -2 -15 9
-11 8 3 20 0 28 -6 11 -9 15 -7 19 10 3 11 10 18 16 14 7 -4 8 0 4 11 -7 19
-118 74 -150 74 -12 0 -29 -7 -37 -16z"/>
<path d="M6933 4790 c-40 -16 -54 -70 -17 -70 19 0 18 -7 -6 -37 -22 -28 -19
-43 4 -24 8 7 19 10 25 7 20 -13 62 15 77 50 14 34 14 38 -3 54 -24 23 -53 31
-80 20z"/>
<path d="M7172 4731 c-8 -14 -23 -21 -41 -21 -28 0 -29 -2 -21 -30 17 -60 145
-180 191 -180 44 0 54 15 53 77 0 48 -6 66 -33 105 -38 57 -35 54 -91 63 -39
5 -47 3 -58 -14z"/>
<path d="M7080 4653 c-26 -9 -60 -46 -60 -65 0 -34 84 -13 96 25 7 23 -14 47
-36 40z"/>
<path d="M6696 4545 c-32 -32 -54 -156 -37 -208 23 -69 116 -67 218 6 78 55
64 93 -41 112 -31 6 -37 13 -47 45 -16 52 -63 75 -93 45z"/>
<path d="M6210 4033 c-58 -8 -109 -18 -114 -23 -6 -6 -6 -24 0 -47 7 -28 23
-48 64 -80 67 -51 117 -67 191 -59 31 3 70 1 87 -3 l31 -9 11 71 c14 81 12 88
-49 135 -48 36 -58 37 -221 15z"/>
<path d="M10808 3893 c7 -3 16 -2 19 1 4 3 -2 6 -13 5 -11 0 -14 -3 -6 -6z"/>
<path d="M10733 3883 c9 -2 25 -2 35 0 9 3 1 5 -18 5 -19 0 -27 -2 -17 -5z"/>
<path d="M10580 3873 c-14 -2 -83 -7 -155 -12 l-130 -8 125 -1 c69 0 161 5
205 13 70 11 74 13 30 12 -27 0 -61 -2 -75 -4z"/>
<path d="M9043 3863 c9 -2 23 -2 30 0 6 3 -1 5 -18 5 -16 0 -22 -2 -12 -5z"/>
<path d="M9461 3798 c-68 -4 -126 -10 -129 -13 -5 -4 290 5 296 10 10 8 -60 9
-167 3z"/>
<path d="M9748 3793 c6 -2 18 -2 25 0 6 3 1 5 -13 5 -14 0 -19 -2 -12 -5z"/>
<path d="M9193 3773 c-24 -5 -32 -23 -10 -22 6 0 41 6 77 14 l65 13 -55 0
c-30 -1 -65 -3 -77 -5z"/>
<path d="M9088 3751 c-26 -4 -51 -11 -55 -15 -9 -10 80 2 111 14 24 10 11 10
-56 1z"/>
<path d="M6570 3724 c-7 -17 -7 -32 0 -45 11 -20 40 -26 40 -8 0 5 4 8 9 5 5
-3 11 4 14 16 14 52 -44 82 -63 32z"/>
<path d="M6840 3735 c-11 -13 -8 -15 24 -13 21 2 36 8 36 16 0 17 -45 15 -60
-3z"/>
<path d="M6730 3720 c0 -5 5 -10 11 -10 5 0 7 5 4 10 -3 6 -8 10 -11 10 -2 0
-4 -4 -4 -10z"/>
<path d="M6775 3720 c-3 -5 -1 -10 4 -10 6 0 11 5 11 10 0 6 -2 10 -4 10 -3 0
-8 -4 -11 -10z"/>
<path d="M6928 3707 c5 -19 2 -20 -57 -14 -71 8 -74 -4 -6 -23 83 -23 73 -28
-88 -45 -38 -4 -65 -13 -78 -26 -14 -14 -15 -19 -5 -19 8 0 17 4 20 9 8 13
189 33 222 25 16 -4 34 -13 39 -21 13 -17 91 -23 88 -5 -2 6 4 12 14 12 14 0
14 2 -2 20 -12 14 -25 18 -41 14 -13 -4 -41 -3 -62 1 -35 8 -36 8 -12 15 37
12 110 11 110 0 0 -5 5 -10 10 -10 6 0 10 7 10 15 0 10 -10 15 -29 15 -16 0
-31 4 -33 10 -1 5 -26 18 -54 29 -51 18 -51 18 -46 -2z"/>
<path d="M8075 3719 c-255 -14 -260 -17 -15 -12 129 2 255 8 280 12 40 8 36 8
-35 8 -44 0 -147 -4 -230 -8z"/>
<path d="M8380 3653 c-268 -27 -436 -55 -455 -74 -10 -11 -1 -10 75 7 51 11
230 35 395 53 130 14 152 18 95 18 -41 0 -91 -2 -110 -4z"/>
<path d="M8578 3653 c6 -2 18 -2 25 0 6 3 1 5 -13 5 -14 0 -19 -2 -12 -5z"/>
<path d="M7178 3633 c6 -2 18 -2 25 0 6 3 1 5 -13 5 -14 0 -19 -2 -12 -5z"/>
<path d="M7258 3633 c7 -3 16 -2 19 1 4 3 -2 6 -13 5 -11 0 -14 -3 -6 -6z"/>
<path d="M6624 3595 c-25 -19 -15 -19 27 0 25 10 29 14 13 15 -11 0 -29 -7
-40 -15z"/>
<path d="M5328 3533 c12 -2 32 -2 45 0 12 2 2 4 -23 4 -25 0 -35 -2 -22 -4z"/>
<path d="M5575 3459 c-80 -12 -94 -20 -21 -12 32 3 93 9 135 13 l76 7 -65 0
c-36 0 -92 -3 -125 -8z"/>
<path d="M5778 3463 c7 -3 16 -2 19 1 4 3 -2 6 -13 5 -11 0 -14 -3 -6 -6z"/>
<path d="M5878 3463 c12 -2 30 -2 40 0 9 3 -1 5 -23 4 -22 0 -30 -2 -17 -4z"/>
<path d="M7245 3450 c-33 -4 -88 -8 -122 -9 -35 -1 -63 -5 -63 -11 0 -5 17
-10 38 -10 66 0 223 20 240 30 20 11 1 11 -93 0z"/>
<path d="M5458 3433 c7 -3 16 -2 19 1 4 3 -2 6 -13 5 -11 0 -14 -3 -6 -6z"/>
<path d="M1048 2893 c7 -3 16 -2 19 1 4 3 -2 6 -13 5 -11 0 -14 -3 -6 -6z"/>
<path d="M1208 2893 c7 -3 16 -2 19 1 4 3 -2 6 -13 5 -11 0 -14 -3 -6 -6z"/>
<path d="M1025 2814 c-51 -11 -110 -28 -115 -33 -3 -3 -23 -14 -44 -24 -86
-40 -198 -148 -244 -236 -37 -70 -82 -226 -82 -283 0 -96 72 -295 131 -363 69
-79 123 -123 197 -162 112 -58 251 -76 388 -50 141 27 301 135 364 246 8 14
18 28 22 31 3 3 16 30 27 60 12 30 27 66 34 79 8 16 12 74 12 165 0 114 -3
146 -16 166 -9 14 -22 43 -29 65 -20 62 -107 172 -185 231 -55 42 -159 90
-223 103 -51 11 -196 13 -237 5z m520 -344 c4 -7 -127 -10 -399 -10 -252 0
-406 4 -406 10 0 13 797 14 805 0z m-571 -112 l14 -33 1 33 c1 21 6 32 16 32
12 0 15 -14 15 -70 0 -49 -4 -70 -12 -70 -18 0 -34 12 -41 30 -4 10 -6 8 -6
-7 -1 -22 -4 -22 -111 -22 l-110 0 0 70 0 69 110 0 110 0 14 -32z m220 20 c5
-10 7 -10 12 -1 7 15 324 18 324 3 0 -6 -7 -10 -15 -10 -8 0 -15 -9 -15 -20 0
-11 7 -20 15 -20 8 0 15 -4 15 -10 0 -5 -7 -10 -15 -10 -8 0 -15 -9 -15 -20 0
-13 7 -20 20 -20 11 0 20 -4 20 -10 0 -5 -25 -10 -55 -10 -51 0 -55 2 -55 24
0 13 -7 26 -15 30 -11 4 -15 -2 -15 -24 l0 -30 -93 0 c-59 0 -97 4 -105 12 -9
9 -12 9 -12 0 0 -8 -24 -12 -80 -12 l-80 0 0 70 0 70 79 0 c54 0 81 -4 85 -12z
m-345 -186 c25 -91 25 -102 2 -102 -11 0 -21 5 -21 10 0 6 -9 10 -20 10 -11 0
-20 -4 -20 -10 0 -5 -12 -10 -26 -10 -25 0 -26 2 -19 37 4 21 10 40 14 43 5 3
11 17 15 33 5 22 12 27 36 27 25 0 31 -5 39 -38z m109 11 l10 -28 1 28 1 28
77 -3 c72 -3 78 -5 83 -27 l5 -24 12 27 c10 20 20 26 43 26 29 0 30 -1 31 -52
1 -57 2 -56 19 10 9 37 14 42 39 42 27 0 42 -20 65 -90 2 -8 5 9 5 38 1 49 3
52 26 52 24 0 25 -3 25 -55 0 -52 1 -55 25 -55 24 0 25 3 25 55 l0 55 50 0
c38 0 50 -4 50 -15 0 -9 -9 -15 -25 -15 -32 0 -34 -27 -2 -32 27 -4 26 -22 -3
-26 -29 -5 -25 -22 5 -22 16 0 25 -6 25 -15 0 -13 -21 -15 -125 -15 -77 0
-125 4 -125 10 0 6 -9 10 -20 10 -11 0 -20 -4 -20 -10 0 -6 -31 -9 -74 -8
l-73 1 -10 36 -10 36 -2 -37 -1 -38 -69 0 c-69 0 -69 0 -76 30 -10 43 -25 47
-25 6 0 -25 -4 -36 -15 -36 -12 0 -15 14 -15 70 l0 70 29 0 c23 0 32 -6 39
-27z m592 -203 c0 -7 -136 -10 -405 -10 -251 1 -405 4 -405 10 0 6 153 10 405
10 268 0 405 -3 405 -10z"/>
<path d="M780 2350 c0 -19 3 -21 12 -12 9 9 9 15 0 24 -9 9 -12 7 -12 -12z"/>
<path d="M870 2350 c0 -15 7 -20 25 -20 18 0 25 5 25 20 0 15 -7 20 -25 20
-18 0 -25 -5 -25 -20z"/>
<path d="M780 2290 c0 -19 3 -21 12 -12 9 9 9 15 0 24 -9 9 -12 7 -12 -12z"/>
<path d="M870 2290 c0 -15 7 -20 25 -20 18 0 25 5 25 20 0 15 -7 20 -25 20
-18 0 -25 -5 -25 -20z"/>
<path d="M1070 2350 c0 -13 7 -20 20 -20 13 0 20 7 20 20 0 13 -7 20 -20 20
-13 0 -20 -7 -20 -20z"/>
<path d="M1320 2350 c0 -13 7 -20 20 -20 13 0 20 7 20 20 0 13 -7 20 -20 20
-13 0 -20 -7 -20 -20z"/>
<path d="M1400 2351 c0 -14 5 -19 15 -14 17 6 15 25 -3 31 -7 2 -12 -5 -12
-17z"/>
<path d="M1140 2350 c0 -5 7 -10 16 -10 8 0 12 5 9 10 -3 6 -10 10 -16 10 -5
0 -9 -4 -9 -10z"/>
<path d="M1244 2345 c21 -16 32 -13 21 4 -3 6 -14 11 -23 11 -15 -1 -15 -2 2
-15z"/>
<path d="M1187 2337 c-3 -8 0 -21 8 -27 19 -15 27 3 11 25 -11 16 -14 16 -19
2z"/>
<path d="M1093 2313 c-29 -6 -32 -43 -4 -43 12 0 20 9 23 25 3 14 5 24 4 24 0
-1 -11 -4 -23 -6z"/>
<path d="M1136 2295 c4 -8 12 -15 20 -15 20 0 17 7 -6 20 -16 9 -18 8 -14 -5z"/>
<path d="M1230 2302 c0 -12 19 -26 26 -19 2 2 -2 10 -11 17 -9 8 -15 8 -15 2z"/>
<path d="M1320 2290 c0 -13 7 -20 20 -20 13 0 20 7 20 20 0 13 -7 20 -20 20
-13 0 -20 -7 -20 -20z"/>
<path d="M3326 2061 c-3 -5 -1 -33 4 -62 6 -30 15 -97 20 -149 5 -52 16 -149
24 -215 9 -66 20 -160 26 -210 33 -290 43 -362 65 -475 13 -69 27 -147 31
-175 3 -27 17 -104 30 -170 22 -107 36 -192 76 -467 l11 -78 174 0 173 0 -1
63 c-1 34 -4 93 -8 131 -6 64 -8 69 -31 73 -46 6 -57 32 -69 175 -19 220 -20
221 -43 215 -56 -15 -93 51 -108 191 -13 120 -15 129 -45 162 -13 14 -27 41
-33 60 -15 49 -32 213 -32 312 0 106 -13 153 -48 173 -33 20 -59 71 -72 145
-6 30 -23 72 -38 94 -46 66 -52 80 -52 123 0 23 -4 53 -10 67 -9 26 -33 35
-44 17z"/>
<path d="M10915 1930 c-3 -5 -14 -10 -24 -10 -9 0 -36 -9 -58 -20 -31 -15 -44
-29 -53 -55 -6 -19 -17 -35 -23 -35 -7 0 -18 -13 -25 -30 -20 -45 -60 -41
-101 10 -17 22 -27 40 -20 40 8 0 8 4 -1 15 -13 16 -60 21 -60 6 0 -5 -13 -11
-30 -14 -23 -5 -30 -12 -30 -30 0 -13 -6 -29 -12 -35 -10 -10 -10 -15 1 -21 9
-6 10 -11 2 -15 -6 -4 -11 -2 -11 3 0 6 -7 11 -15 11 -9 0 -15 -9 -15 -25 0
-14 -6 -28 -14 -31 -8 -3 -12 -13 -9 -24 3 -11 -4 -32 -16 -49 -12 -16 -21
-35 -21 -43 0 -8 -19 -31 -42 -52 l-41 -38 -1 -87 c-1 -52 -6 -90 -13 -96 -12
-10 -20 -66 -29 -197 -3 -43 -10 -78 -15 -78 -5 0 -9 -9 -9 -20 0 -11 -4 -20
-10 -20 -5 0 -10 -9 -10 -20 0 -11 -4 -20 -10 -20 -5 0 -10 -11 -10 -25 0 -16
-6 -25 -15 -25 -11 0 -15 -11 -15 -40 0 -29 -4 -40 -15 -40 -8 0 -15 -9 -15
-20 0 -29 -38 -27 -42 3 -3 20 -9 22 -65 25 -62 3 -63 2 -63 -23 0 -25 -1 -25
-80 -25 l-80 0 -59 60 c-33 33 -63 60 -66 60 -10 0 -44 43 -45 56 0 7 -7 25
-15 40 -11 21 -13 45 -9 90 4 41 3 64 -5 68 -6 4 -11 15 -11 26 0 12 -6 17
-17 15 -10 -1 -12 0 -5 2 21 7 14 43 -8 43 -18 0 -20 7 -20 59 0 51 -3 61 -20
66 -20 6 -29 45 -10 45 6 0 10 9 10 20 0 11 -7 20 -15 20 -9 0 -15 9 -15 25 0
17 -8 29 -24 36 -13 6 -26 19 -29 29 -4 14 -18 17 -81 19 -48 1 -76 -2 -76 -8
0 -7 -31 -11 -81 -11 -51 0 -78 -4 -74 -10 4 -6 -5 -10 -20 -10 -15 0 -32 -6
-38 -12 -22 -23 -47 -67 -47 -83 0 -8 -9 -15 -20 -15 -17 0 -20 -7 -20 -39 0
-25 -5 -41 -15 -45 -8 -3 -15 -12 -15 -20 0 -8 -10 -16 -22 -18 -15 -2 -24
-11 -26 -25 -2 -13 -8 -23 -13 -23 -5 0 -9 -9 -9 -20 0 -27 -18 -25 -23 3 -2
12 -5 4 -6 -19 -1 -40 -20 -71 -34 -57 -4 3 -7 -1 -7 -10 0 -9 -5 -17 -10 -17
-16 0 -28 -42 -20 -71 8 -28 -8 -59 -31 -59 -8 0 -25 -7 -37 -16 -18 -12 -22
-25 -22 -65 0 -28 5 -49 11 -49 6 0 9 -10 7 -22 -2 -13 -9 -22 -15 -21 -6 1
-14 -15 -18 -36 -4 -22 -12 -42 -20 -45 -7 -2 -16 -23 -20 -45 -4 -25 -12 -41
-21 -41 -10 0 -14 -12 -14 -39 0 -31 -4 -41 -20 -46 -11 -3 -20 -14 -20 -23 0
-22 -37 -47 -43 -29 -2 7 -7 -7 -11 -30 -8 -44 -21 -56 -29 -25 -2 9 -4 5 -2
-10 1 -23 -3 -27 -29 -30 -22 -2 -30 -8 -28 -20 1 -9 -9 -25 -22 -35 -14 -11
-27 -35 -31 -56 -7 -38 -48 -101 -58 -90 -4 3 -9 -3 -13 -13 -13 -40 -28 -64
-41 -64 -9 0 -13 -13 -13 -40 l0 -40 1445 0 1445 0 0 920 0 920 -38 0 c-25 0
-43 7 -55 20 -13 15 -29 20 -66 20 -28 0 -53 -4 -56 -10z m-1865 -484 c0 -3
-4 -8 -10 -11 -5 -3 -10 -1 -10 4 0 6 5 11 10 11 6 0 10 -2 10 -4z"/>
<path d="M1128 1573 c6 -2 18 -2 25 0 6 3 1 5 -13 5 -14 0 -19 -2 -12 -5z"/>
<path d="M1138 1463 c6 -2 18 -2 25 0 6 3 1 5 -13 5 -14 0 -19 -2 -12 -5z"/>
<path d="M1065 1391 c-157 -23 -315 -113 -407 -231 -108 -138 -146 -306 -106
-470 15 -60 59 -159 83 -186 5 -7 24 -29 40 -49 65 -81 191 -158 310 -191 61
-17 254 -18 326 -3 100 22 236 100 302 174 131 148 176 300 142 488 -36 204
-186 368 -399 437 -98 31 -208 43 -291 31z m195 -401 c0 -6 -93 -10 -260 -10
-167 0 -260 4 -260 10 0 6 93 10 260 10 167 0 260 -4 260 -10z m140 0 c0 -6
-28 -10 -65 -10 -37 0 -65 4 -65 10 0 6 28 10 65 10 37 0 65 -4 65 -10z m180
0 c0 -6 -35 -10 -85 -10 -50 0 -85 4 -85 10 0 6 35 10 85 10 50 0 85 -4 85
-10z m-735 -92 c18 -8 25 -19 25 -39 0 -15 -5 -31 -11 -35 -8 -4 -8 -9 0 -17
17 -17 14 -87 -3 -87 -16 0 -26 21 -26 56 0 17 -6 24 -20 24 -17 0 -20 -7 -20
-40 0 -29 -4 -40 -15 -40 -12 0 -15 17 -15 95 l0 95 30 0 c16 0 41 -5 55 -12z
m215 -28 c0 -29 -20 -35 -36 -12 -26 38 -45 17 -42 -47 3 -50 5 -56 26 -59 17
-3 25 2 29 17 5 21 33 18 33 -4 0 -39 -83 -62 -109 -31 -7 9 -11 41 -9 82 3
61 6 70 27 80 31 16 81 -1 81 -26z m104 34 c28 -11 17 -24 -19 -24 -31 0 -35
-3 -35 -25 0 -21 5 -25 30 -25 20 0 30 -5 30 -15 0 -10 -10 -15 -30 -15 -25 0
-30 -4 -30 -25 0 -22 4 -25 35 -25 24 0 35 -5 35 -15 0 -11 -12 -15 -50 -15
l-50 0 0 89 c0 62 4 91 13 94 18 8 53 8 71 1z m136 -14 c4 -6 7 -47 8 -91 1
-61 -2 -79 -13 -79 -9 0 -15 14 -17 38 -3 32 -7 37 -30 40 -27 3 -28 1 -28
-37 0 -30 -4 -41 -15 -41 -12 0 -15 17 -15 89 0 62 4 91 13 95 19 9 89 -1 97
-14z m140 -26 c0 -15 -6 -24 -15 -24 -8 0 -15 6 -15 14 0 21 -27 27 -45 10
-15 -16 -20 -69 -9 -98 8 -21 54 -21 54 -1 0 8 7 15 15 15 18 0 20 -31 3 -48
-14 -14 -67 -16 -86 -3 -17 10 -27 79 -18 125 5 26 13 37 34 44 40 13 82 -4
82 -34z m-510 -54 c0 -73 -3 -90 -15 -90 -12 0 -15 17 -15 90 0 73 3 90 15 90
12 0 15 -17 15 -90z m615 68 c4 -13 13 -36 20 -53 7 -16 16 -47 20 -67 6 -30
4 -38 -8 -38 -8 0 -17 9 -20 20 -4 15 -14 20 -37 20 -23 0 -33 -5 -37 -20 -6
-22 -33 -28 -33 -7 0 16 27 104 43 140 14 33 43 35 52 5z m-412 -235 c-73 -2
-193 -2 -265 0 -73 1 -14 3 132 3 146 0 205 -2 133 -3z m234 0 c-20 -2 -52 -2
-70 0 -17 2 0 4 38 4 39 0 53 -2 32 -4z m176 0 c-23 -2 -64 -2 -90 0 -26 2 -7
3 42 3 50 0 71 -1 48 -3z"/>
<path d="M790 856 c0 -20 5 -26 21 -26 15 0 20 5 17 22 -5 34 -38 37 -38 4z"/>
<path d="M1220 855 c0 -23 4 -26 28 -23 19 2 27 9 27 23 0 14 -8 21 -27 23
-24 3 -28 0 -28 -23z"/>
<path d="M1506 824 c-10 -26 -7 -34 13 -34 14 0 18 5 14 20 -7 27 -20 34 -27
14z"/>
<path d="M1831 904 c0 -11 3 -14 6 -6 3 7 2 16 -1 19 -3 4 -6 -2 -5 -13z"/>
<path d="M1831 734 c0 -11 3 -14 6 -6 3 7 2 16 -1 19 -3 4 -6 -2 -5 -13z"/>
<path d="M1821 664 c0 -11 3 -14 6 -6 3 7 2 16 -1 19 -3 4 -6 -2 -5 -13z"/>
<path d="M4137 103 c-11 -10 -8 -43 3 -43 6 0 10 11 10 25 0 26 -2 29 -13 18z"/>
</g>
</svg>
