<?xml version="1.0" standalone="no"?>
<!DOCTYPE svg PUBLIC "-//W3C//DTD SVG 20010904//EN"
 "http://www.w3.org/TR/2001/REC-SVG-20010904/DTD/svg10.dtd">
<svg version="1.0" xmlns="http://www.w3.org/2000/svg"
 width="1200.000000pt" height="628.000000pt" viewBox="0 0 1200.000000 628.000000"
 preserveAspectRatio="xMidYMid meet">

<g transform="translate(0.000000,628.000000) scale(0.100000,-0.100000)"
fill="#000000" stroke="none">
<path d="M420 4394 c-138 -37 -232 -150 -255 -307 l-7 -47 45 0 44 0 7 46 c17
125 99 206 229 229 36 6 37 7 37 50 0 52 -7 54 -100 29z"/>
<path d="M640 4365 l0 -45 558 0 557 1 50 44 49 45 -607 0 -607 0 0 -45z"/>
<path d="M2050 4387 c0 -34 -13 -48 -445 -487 -171 -173 -450 -457 -621 -630
-170 -173 -411 -417 -534 -543 -275 -278 -285 -294 -285 -457 0 -95 3 -111 28
-163 45 -91 141 -179 237 -218 27 -10 122 -15 413 -19 l377 -5 0 42 0 42 -367
3 c-363 3 -369 3 -416 26 -63 32 -129 100 -163 167 -24 49 -26 64 -22 133 4
61 11 89 36 137 34 64 70 103 586 627 352 356 774 785 1034 1049 178 181 192
198 192 232 0 24 -8 45 -25 64 l-24 28 -1 -28z"/>
<path d="M2850 4150 l0 -230 25 0 25 0 0 230 0 230 -25 0 -25 0 0 -230z"/>
<path d="M3028 4364 c-32 -17 -58 -62 -58 -100 0 -37 35 -94 80 -129 47 -37
63 -65 62 -106 -1 -52 -28 -72 -89 -67 -44 4 -52 2 -57 -14 -6 -24 14 -33 76
-33 58 0 98 27 116 80 21 65 7 101 -69 176 -75 72 -84 98 -51 139 18 22 50 28
92 18 18 -4 26 32 8 43 -20 13 -80 10 -110 -7z"/>
<path d="M3200 4355 c0 -22 4 -25 40 -25 l40 0 0 -205 0 -205 25 0 25 0 0 205
0 205 39 0 c30 0 40 4 44 19 3 11 2 22 -1 25 -3 3 -52 6 -109 6 l-103 0 0 -25z"/>
<path d="M3470 4150 l0 -230 25 0 25 0 0 230 0 230 -25 0 -25 0 0 -230z"/>
<path d="M3577 4373 c-4 -3 -7 -15 -7 -25 0 -15 8 -18 45 -18 l45 0 0 -205 0
-205 25 0 25 0 0 205 0 205 40 0 c36 0 40 3 40 25 l0 25 -103 0 c-57 0 -107
-3 -110 -7z"/>
<path d="M3850 4193 c0 -159 3 -193 18 -223 22 -44 56 -62 105 -56 89 10 110
72 105 306 -3 150 -4 155 -25 158 -21 3 -21 2 -25 -186 -3 -170 -5 -192 -22
-211 -11 -12 -31 -21 -48 -21 -49 0 -58 40 -58 245 l0 175 -25 0 -25 0 0 -187z"/>
<path d="M4130 4355 c0 -23 4 -25 40 -25 l40 0 0 -205 0 -205 25 0 25 0 0 205
0 205 46 0 c41 0 45 2 42 23 -3 21 -8 22 -110 25 l-108 3 0 -26z"/>
<path d="M4431 4355 c-44 -38 -66 -104 -66 -205 0 -110 18 -172 62 -210 59
-52 125 -33 164 47 20 41 24 64 24 153 0 119 -19 186 -62 220 -36 28 -85 26
-122 -5z m114 -70 c15 -32 19 -61 19 -140 0 -126 -20 -178 -72 -183 -30 -3
-34 0 -52 40 -15 33 -20 65 -20 143 0 78 5 110 20 143 18 40 22 43 52 40 27
-2 36 -10 53 -43z"/>
<path d="M4780 4355 c0 -23 3 -24 69 -27 l70 -3 -75 -180 c-41 -99 -77 -190
-80 -202 -6 -23 -5 -23 105 -23 104 0 111 1 111 20 0 18 -7 20 -79 20 l-79 0
80 196 c44 108 77 202 74 210 -4 11 -28 14 -101 14 -94 0 -95 0 -95 -25z"/>
<path d="M5065 4347 c-42 -42 -59 -100 -59 -208 0 -101 21 -166 65 -204 56
-46 123 -25 160 52 21 42 24 62 24 163 -1 99 -4 121 -23 157 -43 82 -109 98
-167 40z m120 -62 c16 -32 20 -61 20 -140 0 -124 -22 -180 -69 -180 -51 0 -70
39 -74 153 -6 147 20 217 77 210 19 -2 31 -14 46 -43z"/>
<path d="M5387 4362 c-15 -9 -38 -37 -50 -62 -19 -39 -22 -61 -22 -160 0 -104
2 -119 25 -160 14 -25 38 -51 54 -58 61 -30 133 14 156 96 17 64 12 231 -9
278 -35 76 -95 103 -154 66z m105 -76 c8 -20 13 -74 13 -148 0 -103 -2 -120
-21 -145 -32 -43 -74 -39 -97 9 -41 83 -30 266 19 314 20 21 27 22 48 13 13
-7 31 -26 38 -43z"/>
<path d="M5643 4373 c-10 -3 -13 -59 -13 -229 l0 -224 25 0 c25 0 25 1 25 90
0 87 1 90 23 90 12 0 40 9 63 19 95 43 101 208 9 247 -33 14 -107 18 -132 7z
m118 -52 c20 -16 24 -28 24 -75 0 -73 -29 -103 -92 -97 -9 1 -13 26 -13 89 0
49 3 92 7 95 13 13 51 7 74 -12z"/>
<path d="M5918 4374 c-5 -4 -8 -108 -8 -231 l0 -223 25 0 25 0 0 100 c0 55 2
100 4 100 1 0 17 -5 34 -11 34 -12 46 -35 63 -126 11 -59 13 -63 39 -63 l27 0
-13 52 c-8 29 -14 62 -14 74 0 12 -11 37 -24 56 l-23 34 28 32 c24 27 29 41
29 87 0 46 -5 60 -29 87 -25 28 -35 32 -92 36 -35 2 -67 0 -71 -4z m116 -55
c54 -43 25 -147 -46 -163 l-28 -6 0 95 c0 93 0 95 24 95 13 0 35 -9 50 -21z"/>
<path d="M6253 4370 c-12 -5 -35 -28 -50 -51 -25 -38 -28 -52 -31 -148 -5
-128 8 -183 53 -228 37 -37 69 -42 116 -17 47 24 72 90 77 201 9 184 -60 285
-165 243z m94 -83 c13 -24 17 -58 17 -142 1 -93 -3 -116 -20 -145 -26 -46 -67
-48 -98 -7 -19 25 -21 42 -21 145 0 127 12 173 48 190 29 13 52 0 74 -41z"/>
<path d="M6490 4150 l0 -230 25 0 25 0 0 105 0 105 55 0 c48 0 55 2 55 20 0
18 -7 20 -55 20 l-55 0 0 80 0 80 60 0 c57 0 60 1 60 25 0 25 -1 25 -85 25
l-85 0 0 -230z"/>
<path d="M6727 4373 c-4 -3 -7 -107 -7 -230 l0 -223 25 0 25 0 0 230 c0 216
-1 230 -18 230 -10 0 -22 -3 -25 -7z"/>
<path d="M6860 4150 l0 -230 90 0 c83 0 90 1 90 20 0 18 -7 20 -65 20 l-65 0
0 210 0 210 -25 0 -25 0 0 -230z"/>
<path d="M7175 4370 c-5 -9 -69 -276 -100 -417 -6 -30 -5 -33 19 -33 22 0 26
6 38 63 l14 62 52 3 c49 3 52 2 58 -25 22 -98 24 -103 50 -103 20 0 23 4 19
23 -10 39 -95 429 -95 433 0 9 -49 3 -55 -6z m43 -147 c7 -43 15 -90 19 -105
5 -27 4 -28 -36 -28 -22 0 -41 3 -41 8 -1 23 34 202 40 202 3 0 11 -35 18 -77z"/>
<path d="M7320 4355 c0 -23 4 -25 40 -25 l40 0 0 -205 0 -205 30 0 30 0 0 205
0 205 41 0 c36 0 40 2 37 23 -3 21 -8 22 -110 25 l-108 3 0 -26z"/>
<path d="M7570 4355 c0 -22 4 -25 40 -25 l40 0 0 -205 0 -205 25 0 25 0 0 205
0 205 39 0 c30 0 40 4 44 19 3 11 2 22 -1 25 -3 3 -52 6 -109 6 l-103 0 0 -25z"/>
<path d="M7840 4150 l0 -230 25 0 25 0 0 230 0 230 -25 0 -25 0 0 -230z"/>
<path d="M8054 4361 c-64 -39 -94 -110 -94 -221 0 -159 72 -247 183 -226 29 5
34 10 30 26 -4 16 -14 20 -47 20 -44 0 -70 18 -95 68 -21 40 -25 143 -8 203
21 71 53 102 105 101 31 -1 41 4 45 18 9 35 -68 42 -119 11z"/>
<path d="M8260 4343 c-31 -32 -39 -50 -50 -107 -25 -135 8 -279 72 -312 60
-31 131 8 157 85 19 58 24 162 11 226 -16 78 -34 111 -70 130 -48 25 -78 19
-120 -22z m120 -55 c28 -61 28 -225 0 -286 -18 -40 -22 -43 -52 -40 -26 2 -36
10 -49 38 -22 47 -31 141 -19 218 11 81 31 112 71 112 26 0 33 -6 49 -42z"/>
<path d="M8685 4370 c-33 -13 -63 -53 -66 -85 -5 -68 0 -79 67 -141 55 -51 66
-68 71 -102 4 -32 1 -44 -17 -62 -18 -18 -31 -21 -73 -18 -43 2 -52 0 -55 -14
-6 -33 79 -50 128 -25 35 18 70 74 70 114 0 47 -21 84 -77 132 -58 51 -74 84
-61 122 11 31 52 50 83 38 31 -12 35 -11 35 15 0 34 -53 48 -105 26z"/>
<path d="M8888 4374 c-5 -4 -8 -108 -8 -231 l0 -223 25 0 c25 0 25 1 25 89 l0
88 40 7 c23 4 54 18 72 35 29 26 33 35 36 98 4 66 2 72 -26 104 -26 29 -36 33
-93 37 -35 2 -67 0 -71 -4z m117 -59 c51 -50 22 -159 -45 -167 -25 -3 -25 -3
-28 95 l-3 97 26 0 c14 0 37 -11 50 -25z"/>
<path d="M9152 4148 l3 -233 85 0 c81 0 85 1 88 23 3 21 0 22 -62 22 l-66 0 0
85 0 84 58 3 c49 3 57 6 57 23 0 17 -8 20 -57 23 l-58 3 0 74 0 75 60 0 c57 0
60 1 60 25 0 25 -1 25 -85 25 l-85 0 2 -232z"/>
<path d="M9397 4373 c-4 -3 -7 -107 -7 -230 l0 -223 25 0 25 0 0 100 0 100 28
-6 c42 -10 60 -38 73 -119 11 -72 13 -75 39 -75 l28 0 -19 87 c-12 53 -27 95
-39 107 -19 19 -19 20 5 42 61 57 53 173 -15 206 -34 18 -130 25 -143 11z
m116 -47 c35 -27 40 -90 12 -139 -11 -18 -69 -40 -79 -29 -3 3 -6 45 -6 94 l0
88 28 0 c15 0 35 -7 45 -14z"/>
<path d="M9670 4151 l0 -231 25 0 25 0 -2 228 c-3 227 -3 227 -25 230 l-23 3
0 -230z"/>
<path d="M9816 4318 c-3 -35 -8 -110 -11 -168 -3 -58 -8 -133 -11 -167 -6 -62
-5 -63 20 -63 25 0 26 2 27 68 1 37 4 119 8 182 l6 114 45 -182 c36 -150 47
-182 62 -182 19 0 19 0 72 212 18 70 35 130 39 134 4 4 7 -38 7 -93 0 -55 3
-134 6 -176 7 -73 8 -77 31 -77 24 0 25 2 19 48 -3 26 -8 99 -11 162 -3 63 -8
146 -11 183 -6 67 -7 68 -33 65 -25 -3 -27 -9 -64 -158 -21 -85 -41 -166 -44
-180 -4 -18 -19 28 -52 155 -44 173 -47 180 -72 183 -26 3 -27 1 -33 -60z"/>
<path d="M10215 4368 c-3 -8 -4 -112 -3 -233 l3 -220 88 -3 87 -3 0 26 c0 24
-2 25 -65 25 l-65 0 0 85 0 85 61 0 c57 0 60 1 57 23 -3 19 -10 22 -60 25
l-58 3 0 74 0 75 66 0 c62 0 65 1 62 23 -3 20 -9 22 -86 25 -61 2 -84 -1 -87
-10z"/>
<path d="M10460 4151 c0 -224 1 -231 20 -231 19 0 20 7 20 178 l1 177 60 -155
c33 -85 65 -165 70 -177 6 -16 17 -23 34 -23 l25 0 -2 228 c-3 219 -4 227 -23
227 -19 0 -20 -6 -19 -180 2 -207 9 -209 -84 30 -48 125 -61 151 -80 153 l-22
3 0 -230z"/>
<path d="M10740 4355 c0 -22 4 -25 40 -25 l40 0 0 -205 0 -205 25 0 25 0 2
203 3 202 43 3 c37 3 42 6 42 28 0 24 0 24 -110 24 l-110 0 0 -25z"/>
<path d="M11060 4375 c0 -3 -20 -92 -44 -198 -65 -284 -62 -257 -34 -257 22 0
26 7 39 63 l14 62 52 3 c58 3 53 9 71 -83 7 -34 12 -40 36 -43 23 -3 27 0 22
15 -3 10 -24 104 -47 208 -51 233 -52 235 -84 235 -14 0 -25 -2 -25 -5z m51
-172 c24 -118 25 -113 -21 -113 -31 0 -40 4 -40 17 0 27 33 193 38 188 3 -2
13 -44 23 -92z"/>
<path d="M11277 4374 c-4 -4 -7 -108 -7 -231 l0 -223 90 0 c83 0 90 1 90 20 0
18 -7 20 -60 20 l-60 0 -2 208 c-3 200 -4 207 -23 210 -12 2 -24 0 -28 -4z"/>
<path d="M11512 4148 l3 -233 85 0 c81 0 85 1 88 23 3 21 0 22 -62 22 l-66 0
0 85 0 84 58 3 c49 3 57 6 57 23 0 17 -8 20 -57 23 l-58 3 0 74 0 75 60 0 c57
0 60 1 60 25 0 25 -1 25 -85 25 l-85 0 2 -232z"/>
<path d="M2140 4294 c0 -22 -7 -51 -17 -64 -9 -14 -296 -306 -638 -650 -1268
-1275 -1177 -1173 -1177 -1308 0 -85 23 -143 77 -195 66 -64 86 -67 482 -67
l353 0 0 43 0 42 -347 0 c-346 0 -348 0 -388 23 -60 35 -79 67 -82 137 -3 42
2 71 14 97 10 21 92 113 183 205 91 93 401 409 690 703 289 294 606 617 705
718 99 100 186 197 193 215 17 38 4 93 -28 122 -20 18 -20 18 -20 -21z"/>
<path d="M470 4256 c-96 -26 -151 -83 -166 -174 l-7 -42 46 0 c43 0 45 1 51
35 10 50 45 86 92 94 38 6 39 7 42 54 2 26 -1 47 -5 46 -4 0 -28 -6 -53 -13z"/>
<path d="M640 4225 l0 -45 494 0 494 0 49 45 48 44 -542 1 -543 0 0 -45z"/>
<path d="M2240 4193 c0 -15 -8 -40 -18 -54 -9 -15 -408 -421 -887 -903 -646
-651 -874 -887 -884 -915 -28 -75 9 -149 88 -171 21 -6 174 -10 359 -10 l322
0 0 51 0 51 -320 -7 c-288 -7 -322 -6 -345 9 -14 9 -25 22 -25 30 0 7 388 404
863 881 474 477 870 882 879 899 22 39 22 79 2 122 -22 45 -34 52 -34 17z"/>
<path d="M473 4108 c-11 -13 -24 -33 -28 -45 -6 -22 -3 -23 39 -23 l46 0 0 45
c0 37 -3 45 -18 45 -10 0 -28 -10 -39 -22z"/>
<path d="M640 4085 l0 -45 423 0 422 1 50 44 50 45 -472 0 -473 0 0 -45z"/>
<path d="M300 3419 c0 -635 -6 -582 63 -520 l27 25 0 533 0 533 -45 0 -45 0 0
-571z"/>
<path d="M440 3488 l0 -503 45 47 45 47 0 455 0 456 -45 0 -45 0 0 -502z"/>
<path d="M170 3348 l0 -632 40 39 40 39 0 593 0 593 -40 0 -40 0 0 -632z"/>
<path d="M2854 3547 c-2 -7 -3 -111 -2 -232 l3 -220 39 -3 c52 -4 121 23 146
58 11 15 27 57 36 91 32 125 -4 265 -76 301 -42 21 -138 24 -146 5z m122 -42
c39 -26 54 -76 54 -172 -1 -131 -34 -193 -104 -193 l-26 0 0 190 0 190 28 0
c15 0 37 -7 48 -15z"/>
<path d="M3150 3330 l0 -230 90 0 c83 0 90 1 90 20 0 18 -7 20 -65 20 l-65 0
0 85 0 84 58 3 c49 3 57 6 57 23 0 17 -8 20 -57 23 l-58 3 0 74 0 75 60 0 c57
0 60 1 60 25 0 25 -1 25 -85 25 l-85 0 0 -230z"/>
<path d="M3390 3330 l0 -230 90 0 c83 0 90 1 90 20 0 18 -7 20 -65 20 l-65 0
0 210 0 210 -25 0 -25 0 0 -230z"/>
<path d="M3630 3331 l0 -231 90 0 c83 0 90 1 90 20 0 18 -7 20 -65 20 l-65 0
-2 208 c-3 206 -3 207 -25 210 l-23 3 0 -230z"/>
<path d="M3947 3553 c-6 -9 -35 -129 -72 -298 -14 -66 -28 -128 -31 -137 -4
-14 1 -18 19 -18 19 0 26 7 31 28 4 15 12 44 17 65 l10 38 51 -3 52 -3 14 -62
c12 -56 16 -63 38 -63 13 0 24 2 24 4 0 4 -83 381 -95 434 -4 15 -13 22 -30
22 -13 0 -26 -3 -28 -7z m46 -170 c10 -54 17 -101 17 -105 0 -5 -19 -8 -41 -8
-40 0 -41 1 -36 28 2 15 10 62 18 105 7 42 15 77 19 77 4 0 14 -44 23 -97z"/>
<path d="M4270 3331 l0 -231 90 0 c83 0 90 1 90 20 0 18 -7 20 -65 20 l-65 0
-2 208 c-3 206 -3 207 -25 210 l-23 3 0 -230z"/>
<path d="M4540 3547 c-14 -6 -37 -36 -52 -66 -24 -47 -28 -66 -28 -143 0 -110
14 -170 50 -208 56 -60 130 -46 172 32 20 38 23 57 23 168 0 113 -2 129 -24
166 -34 60 -85 79 -141 51z m78 -49 c39 -42 54 -173 31 -277 -18 -85 -75 -108
-112 -43 -41 70 -31 270 15 319 27 29 39 29 66 1z"/>
<path d="M4787 3458 c-22 -340 -22 -358 0 -358 17 0 21 9 27 61 3 34 6 114 6
177 0 63 3 113 6 109 4 -3 26 -81 49 -172 23 -91 45 -168 48 -171 21 -21 37
19 78 183 l44 178 6 -100 c4 -55 7 -137 8 -182 1 -82 1 -83 27 -83 l25 0 -7
133 c-4 72 -10 175 -13 227 l-6 95 -30 0 -29 0 -38 -155 c-21 -85 -38 -165
-38 -177 0 -13 -4 -23 -10 -23 -5 0 -10 8 -10 19 0 10 -18 90 -40 176 -22 86
-40 159 -40 161 0 2 -13 4 -29 4 l-28 0 -6 -102z"/>
<path d="M5197 3553 c-4 -3 -7 -109 -7 -235 l0 -228 53 0 c130 1 198 87 153
195 -8 19 -26 40 -40 46 l-25 12 29 34 c23 25 30 44 30 74 0 53 -14 78 -55 95
-35 14 -126 19 -138 7z m123 -53 c25 -25 26 -80 3 -109 -10 -11 -33 -24 -50
-27 l-33 -6 0 81 0 81 30 0 c17 0 39 -9 50 -20z m-8 -191 c11 -6 26 -26 34
-46 21 -50 4 -100 -42 -119 -62 -26 -64 -24 -64 81 l0 95 26 0 c14 0 34 -5 46
-11z"/>
<path d="M5545 3548 c-2 -7 -23 -94 -45 -193 -22 -99 -44 -197 -49 -218 -9
-37 -8 -38 17 -35 23 3 27 10 40 66 l13 62 54 0 53 0 12 -65 c11 -58 15 -65
36 -65 13 0 24 6 24 13 0 6 -22 109 -48 227 -48 212 -49 215 -75 218 -16 2
-29 -2 -32 -10z m65 -250 c0 -25 -3 -28 -34 -28 -19 0 -37 4 -41 9 -5 8 7 77
32 181 4 19 10 6 24 -55 10 -44 19 -92 19 -107z"/>
<path d="M5773 3553 c-10 -3 -13 -59 -13 -229 l0 -224 28 0 27 0 -2 95 c-1 52
2 97 7 100 18 11 61 -8 74 -34 7 -14 19 -56 26 -93 12 -65 14 -68 41 -68 26 0
27 2 19 28 -5 15 -14 53 -20 84 -6 32 -20 68 -30 80 -18 22 -17 23 11 56 53
60 34 178 -32 201 -32 11 -113 14 -136 4z m124 -55 c50 -47 17 -158 -47 -158
-16 0 -30 7 -34 16 -8 21 -8 149 1 157 14 14 58 6 80 -15z"/>
<path d="M6058 3554 c-5 -4 -8 -110 -8 -236 l0 -228 38 0 c91 0 159 48 181
127 18 63 13 202 -8 248 -31 66 -62 89 -134 93 -34 2 -65 0 -69 -4z m105 -45
c38 -17 60 -65 65 -145 8 -132 -32 -224 -98 -224 l-30 0 0 190 c0 182 1 190
20 190 10 0 30 -5 43 -11z"/>
<path d="M6350 3331 l0 -231 25 0 25 0 -2 228 c-3 227 -3 227 -25 230 l-23 3
0 -230z"/>
<path d="M6560 3554 c0 -4 -22 -105 -50 -225 -27 -120 -50 -221 -50 -224 0 -3
11 -5 24 -5 22 0 26 7 38 63 l14 62 52 3 c49 3 52 2 58 -25 22 -98 24 -103 50
-103 20 0 24 4 19 23 -18 78 -95 431 -95 434 0 2 -13 3 -30 3 -16 0 -30 -3
-30 -6z m49 -151 c7 -43 15 -90 18 -105 5 -27 4 -28 -36 -28 -22 0 -41 3 -41
8 -1 24 35 202 40 202 4 0 12 -35 19 -77z"/>
<path d="M6890 3330 l0 -230 90 0 c83 0 90 1 90 20 0 18 -7 20 -65 20 l-65 0
0 85 0 85 55 0 c52 0 55 1 55 25 0 24 -3 25 -55 25 l-55 0 0 75 0 75 60 0 c57
0 60 1 60 25 0 25 -1 25 -85 25 l-85 0 0 -230z"/>
<path d="M7234 3547 c-2 -7 -3 -111 -2 -232 l3 -220 35 -3 c88 -9 162 41 186
125 22 77 16 216 -12 264 -32 54 -77 79 -146 79 -38 0 -60 -4 -64 -13z m134
-52 c39 -33 57 -104 49 -196 -9 -103 -45 -159 -104 -159 l-33 0 0 183 c0 101
3 187 7 190 14 15 53 6 81 -18z"/>
<path d="M7540 3330 l0 -230 90 0 c83 0 90 1 90 20 0 18 -7 20 -65 20 l-65 0
0 85 0 84 58 3 c49 3 57 6 57 23 0 17 -8 20 -57 23 l-58 3 0 74 0 75 60 0 c57
0 60 1 60 25 0 25 -1 25 -85 25 l-85 0 0 -230z"/>
<path d="M7780 3330 l0 -230 90 0 c83 0 90 1 90 20 0 18 -7 20 -65 20 l-65 0
0 210 0 210 -25 0 -25 0 0 -230z"/>
<path d="M8017 3554 c-4 -4 -7 -108 -7 -231 l0 -223 90 0 c83 0 90 1 90 20 0
18 -7 20 -60 20 l-60 0 -2 208 c-3 200 -4 207 -23 210 -12 2 -24 0 -28 -4z"/>
<path d="M8205 3548 c-5 -16 -35 -138 -35 -143 0 -3 7 -2 15 2 15 5 33 38 60
116 14 36 14 37 -11 37 -13 0 -26 -6 -29 -12z"/>
<path d="M8320 3330 l0 -230 90 0 c83 0 90 1 90 20 0 18 -7 20 -65 20 l-65 0
0 85 0 85 55 0 c52 0 55 1 55 25 0 24 -3 25 -55 25 l-55 0 0 75 0 75 60 0 c57
0 60 1 60 25 0 25 -1 25 -85 25 l-85 0 0 -230z"/>
<path d="M8576 3538 c-3 -13 -7 -77 -11 -143 -3 -66 -8 -159 -12 -207 l-6 -88
27 0 26 0 1 93 c1 50 4 130 7 176 l7 85 44 -177 c61 -251 66 -248 148 103 l18
75 6 -70 c4 -38 7 -108 8 -155 2 -108 7 -130 35 -130 l21 0 -12 188 c-6 103
-12 206 -12 230 -1 40 -3 42 -30 42 -20 0 -31 -6 -35 -17 -2 -10 -22 -91 -43
-181 -21 -90 -40 -157 -42 -150 -3 7 -23 87 -46 178 -39 160 -41 165 -67 168
-22 3 -28 -2 -32 -20z"/>
<path d="M8968 3331 l-3 -231 28 0 27 0 -2 228 c-3 226 -3 227 -25 230 l-22 3
-3 -230z"/>
<path d="M9107 3553 c-4 -3 -7 -107 -7 -230 l0 -223 90 0 c83 0 90 1 90 20 0
18 -7 20 -65 20 l-65 0 0 210 c0 197 -1 210 -18 210 -10 0 -22 -3 -25 -7z"/>
<path d="M9340 3330 l0 -230 25 0 25 0 0 230 0 230 -25 0 -25 0 0 -230z"/>
<path d="M9550 3554 c0 -3 -22 -105 -50 -226 -27 -121 -50 -222 -50 -224 0 -2
11 -4 24 -4 22 0 26 7 38 63 l13 62 52 3 52 3 9 -38 c6 -21 13 -50 16 -65 5
-22 12 -28 32 -28 23 0 25 3 20 24 -9 38 -96 427 -96 432 0 2 -13 4 -30 4 -16
0 -30 -3 -30 -6z m52 -167 c25 -118 25 -117 -22 -117 -31 0 -40 4 -40 17 0 29
35 192 40 187 2 -3 12 -42 22 -87z"/>
<path d="M9887 3553 c-4 -3 -7 -107 -7 -230 l0 -223 25 0 25 0 0 101 0 101 28
-7 c42 -10 52 -26 69 -113 15 -78 17 -82 43 -82 l27 0 -19 88 c-11 51 -27 95
-38 106 -19 19 -19 20 10 53 26 29 30 42 30 89 0 68 -12 92 -55 110 -35 14
-126 19 -138 7z m123 -53 c47 -47 12 -160 -51 -160 l-29 0 0 90 0 90 30 0 c17
0 39 -9 50 -20z"/>
<path d="M10202 3535 c-43 -36 -62 -101 -62 -210 0 -145 36 -220 111 -231 84
-12 139 78 139 230 0 45 -7 105 -15 133 -28 95 -109 132 -173 78z m97 -39 c46
-49 53 -255 11 -324 -35 -58 -87 -37 -109 43 -25 93 -3 271 37 294 26 16 36
13 61 -13z"/>
<path d="M10476 3548 c-2 -7 -7 -69 -10 -138 -4 -69 -9 -167 -13 -217 l-6 -93
27 0 26 0 0 98 c0 55 3 134 7 176 l6 77 43 -168 c24 -92 44 -171 44 -175 0 -5
8 -8 19 -8 16 0 25 26 63 178 l45 177 7 -150 c9 -190 12 -205 38 -205 21 0 21
3 13 153 -4 83 -10 186 -14 227 -6 72 -7 75 -33 78 -31 4 -25 19 -80 -215 -18
-78 -34 -141 -35 -139 -2 2 -23 81 -47 177 -42 168 -44 174 -70 177 -15 2 -28
-2 -30 -10z"/>
<path d="M10936 3543 c-9 -31 -96 -425 -96 -434 0 -5 11 -9 24 -9 21 0 25 7
36 65 l12 65 53 0 54 0 13 -62 c13 -56 17 -63 40 -66 l26 -3 -18 81 c-10 44
-33 148 -51 230 -32 149 -33 150 -60 150 -18 0 -29 -6 -33 -17z m53 -157 c11
-55 18 -103 15 -108 -6 -9 -67 -11 -76 -3 -2 3 4 52 16 110 11 57 21 103 22
102 2 -1 12 -47 23 -101z"/>
<path d="M11230 3543 c-71 -37 -105 -121 -98 -249 8 -144 78 -219 186 -198
l47 9 3 113 3 112 -56 0 c-48 0 -56 -3 -53 -17 2 -11 14 -19 31 -21 27 -3 27
-4 27 -78 l0 -74 -34 0 c-71 0 -115 97 -102 223 10 102 52 150 130 151 34 1
41 4 41 21 0 17 -8 20 -45 23 -28 1 -58 -4 -80 -15z"/>
<path d="M11450 3558 c0 -2 -1 -105 -3 -231 l-2 -227 23 0 c22 0 22 0 22 178
l1 177 38 -100 c93 -242 96 -250 125 -253 l26 -3 0 230 0 231 -26 0 -26 0 3
-185 c2 -102 3 -182 1 -178 -102 274 -139 358 -160 361 -12 2 -22 2 -22 0z"/>
<path d="M11835 3538 c-3 -13 -27 -116 -53 -230 l-48 -208 27 0 c23 0 28 5 33
38 17 99 12 92 71 92 l53 0 11 -50 c6 -28 11 -58 11 -65 0 -10 10 -15 30 -15
19 0 28 4 25 13 -2 6 -25 106 -50 221 -25 115 -48 213 -51 217 -3 5 -16 9 -29
9 -17 0 -26 -7 -30 -22z m54 -158 c10 -52 17 -98 14 -102 -6 -10 -71 -10 -76
0 -2 4 5 54 17 111 11 58 21 100 23 95 1 -5 11 -52 22 -104z"/>
<path d="M1836 3434 c-125 -30 -274 -129 -336 -222 -67 -101 -105 -305 -80
-427 20 -99 53 -148 203 -306 153 -162 179 -198 157 -224 -10 -13 -46 -15
-231 -15 l-219 0 0 -51 0 -50 234 3 235 3 29 28 c39 37 58 103 43 149 -7 20
-64 88 -151 178 -166 171 -200 228 -208 344 -11 192 80 376 225 453 87 47 185
63 378 63 l165 0 0 45 0 45 -192 -1 c-130 0 -212 -5 -252 -15z"/>
<path d="M1891 3299 c-35 -4 -87 -20 -116 -34 -66 -32 -148 -118 -183 -192
-25 -53 -27 -69 -27 -178 0 -170 14 -197 201 -380 119 -118 143 -146 149 -178
12 -65 1 -133 -29 -172 -48 -63 -59 -65 -321 -65 l-235 0 0 -45 0 -45 238 0
c228 0 239 1 287 24 104 48 175 169 162 277 -10 78 -42 127 -178 264 -157 159
-182 205 -183 330 -1 62 4 91 21 127 30 66 95 132 156 159 47 21 70 24 247 29
l195 5 3 43 3 42 -163 -1 c-90 -1 -192 -5 -227 -10z"/>
<path d="M1883 3153 c-63 -18 -126 -70 -155 -127 -16 -31 -22 -60 -22 -121 -1
-124 8 -141 169 -305 173 -176 190 -204 190 -320 0 -70 -4 -93 -23 -128 -35
-67 -98 -129 -161 -159 -56 -28 -56 -28 -303 -31 l-248 -3 0 -46 0 -45 253 4
c233 4 256 6 310 27 234 92 331 382 199 596 -14 22 -82 99 -153 170 -70 72
-133 143 -138 158 -17 45 -13 128 8 167 10 19 37 49 60 65 l43 30 184 3 184 4
0 39 0 39 -172 -1 c-124 0 -188 -5 -225 -16z"/>
<path d="M2862 2817 c-15 -18 -44 -99 -38 -105 14 -14 35 13 46 58 13 54 10
69 -8 47z"/>
<path d="M2911 2781 c-25 -60 -26 -73 -4 -69 14 2 42 75 43 111 0 23 -20 0
-39 -42z"/>
<path d="M3934 2819 c-72 -35 -86 -247 -22 -316 40 -42 99 -29 128 28 24 47
28 181 6 233 -23 56 -66 77 -112 55z m74 -62 c17 -34 17 -175 1 -210 -17 -37
-48 -45 -70 -18 -33 40 -38 187 -9 241 16 31 61 24 78 -13z"/>
<path d="M5650 2788 c-6 -24 -13 -51 -16 -60 -11 -38 18 -16 36 28 24 54 25
74 5 74 -8 0 -19 -17 -25 -42z"/>
<path d="M5726 2818 c-28 -99 -30 -108 -17 -108 9 0 51 90 51 109 0 15 -30 14
-34 -1z"/>
<path d="M2998 2650 l-3 -170 53 0 c46 0 58 4 83 29 40 41 40 91 0 132 -22 21
-26 31 -17 36 17 11 36 47 36 71 0 11 -9 31 -21 46 -18 22 -28 26 -74 26 l-54
0 -3 -170z m100 128 c32 -27 0 -98 -45 -98 -21 0 -23 4 -23 53 0 30 3 57 7 60
8 8 42 -1 61 -15z m1 -154 c39 -49 16 -114 -40 -114 l-29 0 0 70 c0 67 1 70
24 70 15 0 33 -11 45 -26z"/>
<path d="M3210 2650 c0 -144 2 -170 15 -170 12 0 15 15 15 75 0 67 2 75 19 75
26 0 48 -24 55 -60 3 -16 9 -43 12 -60 4 -21 11 -30 25 -30 15 0 19 5 15 18
-2 9 -7 33 -11 52 -9 51 -26 90 -39 90 -6 0 -4 6 5 13 42 32 51 99 18 141 -18
22 -28 26 -75 26 l-54 0 0 -170z m98 128 c21 -21 15 -85 -10 -102 -46 -33 -58
-22 -58 49 0 65 0 65 28 65 15 0 33 -5 40 -12z"/>
<path d="M3420 2676 c0 -131 2 -146 21 -170 30 -38 92 -34 123 7 19 25 21 45
24 168 3 135 3 139 -17 139 -20 0 -21 -5 -21 -134 0 -114 -3 -137 -18 -156
-21 -25 -55 -21 -68 8 -4 9 -9 77 -12 150 -3 103 -7 132 -18 132 -11 0 -14
-28 -14 -144z"/>
<path d="M3650 2651 c0 -145 2 -171 15 -171 13 0 15 21 15 132 0 72 3 128 7
124 4 -4 28 -62 54 -129 30 -80 52 -123 63 -125 14 -3 16 15 16 167 0 148 -2
171 -16 171 -13 0 -15 -18 -12 -129 2 -71 1 -127 -1 -125 -3 2 -26 59 -52 127
-38 97 -51 123 -68 125 -21 3 -21 0 -21 -167z"/>
<path d="M4200 2676 c0 -130 2 -146 21 -170 29 -37 89 -37 118 0 19 24 21 40
21 170 0 121 -2 144 -15 144 -13 0 -15 -21 -15 -127 0 -137 -10 -176 -46 -181
-40 -6 -49 22 -52 170 -3 110 -7 138 -18 138 -11 0 -14 -27 -14 -144z"/>
<path d="M4430 2650 l0 -170 45 0 c51 0 99 20 109 45 15 39 6 96 -19 121 -24
24 -24 25 -5 44 27 27 26 84 0 110 -15 15 -33 20 -75 20 l-55 0 0 -170z m110
114 c11 -29 -2 -69 -25 -78 -38 -14 -45 -8 -45 47 0 30 2 56 5 59 13 13 57 -6
65 -28z m-10 -134 c40 -40 16 -120 -37 -120 -22 0 -23 3 -23 70 0 63 2 70 20
70 11 0 29 -9 40 -20z"/>
<path d="M4640 2650 l0 -170 70 0 c54 0 70 3 70 14 0 11 -14 16 -47 18 l-48 3
-3 68 -3 67 46 0 c33 0 45 4 45 15 0 11 -12 15 -45 15 l-45 0 0 55 0 55 45 0
c33 0 45 4 45 15 0 12 -14 15 -65 15 l-65 0 0 -170z"/>
<path d="M4820 2650 c0 -163 1 -170 20 -170 18 0 20 7 20 75 0 67 2 75 19 75
30 0 48 -25 56 -76 9 -64 14 -74 37 -74 12 0 18 5 15 13 -2 7 -10 38 -16 69
-7 31 -19 62 -26 68 -13 11 -11 17 10 42 31 37 33 86 4 122 -18 23 -28 26 -80
26 l-59 0 0 -170z m110 121 c25 -47 -4 -111 -50 -111 -18 0 -20 7 -20 65 l0
65 30 0 c19 0 33 -7 40 -19z"/>
<path d="M5000 2805 c0 -10 11 -15 35 -15 l35 0 0 -155 c0 -131 2 -155 15
-155 13 0 15 24 15 155 l0 155 35 0 c24 0 35 5 35 15 0 12 -16 15 -85 15 -69
0 -85 -3 -85 -15z"/>
<path d="M5210 2650 c0 -144 2 -170 15 -170 13 0 15 26 15 170 0 144 -2 170
-15 170 -13 0 -15 -26 -15 -170z"/>
<path d="M5310 2650 c0 -143 2 -170 15 -170 12 0 15 24 17 131 l3 131 50 -128
c35 -89 56 -130 68 -132 16 -3 17 11 17 167 0 144 -2 171 -15 171 -12 0 -15
-23 -17 -127 l-3 -126 -49 126 c-38 100 -53 127 -67 127 -18 0 -19 -11 -19
-170z"/>
<path d="M5550 2650 c0 -144 2 -170 15 -170 13 0 15 26 15 170 0 144 -2 170
-15 170 -13 0 -15 -26 -15 -170z"/>
<path d="M2832 2188 l3 -113 65 -1 c64 -1 64 -1 8 3 l-58 4 0 49 0 49 58 4 57
3 -58 2 -58 2 3 48 3 47 55 6 55 6 -68 1 -68 2 3 -112z"/>
<path d="M3000 2185 c0 -141 18 -155 22 -18 l3 97 83 -94 c46 -52 88 -96 93
-98 5 -2 9 48 9 112 0 142 -18 157 -22 19 l-3 -98 -85 98 c-46 53 -88 97 -92
97 -4 0 -8 -52 -8 -115z"/>
<path d="M3280 2291 l45 -6 5 -110 6 -110 4 110 5 110 45 6 c29 4 11 6 -55 6
-66 0 -84 -2 -55 -6z"/>
<path d="M3460 2185 l0 -115 68 2 67 2 -57 3 -58 4 0 49 0 49 53 4 52 3 -52 2
-53 2 0 49 0 50 53 4 52 3 -62 2 -63 2 0 -115z"/>
<path d="M3730 2280 c-35 -35 -20 -80 33 -96 57 -17 74 -62 33 -89 -22 -15
-27 -15 -56 0 -24 13 -31 13 -28 3 6 -18 50 -32 80 -25 30 8 52 47 43 76 -4
13 -26 31 -53 44 -37 17 -48 28 -50 50 -3 21 2 29 22 37 17 6 35 6 51 0 14 -5
25 -6 25 -1 0 9 -34 21 -62 21 -10 0 -27 -9 -38 -20z"/>
<path d="M3951 2278 c-5 -13 -28 -63 -50 -112 -23 -49 -39 -91 -36 -94 6 -6 7
-6 28 41 17 37 17 37 76 37 l59 0 16 -41 c9 -23 19 -39 23 -36 7 8 -89 227
-100 227 -4 0 -11 -10 -16 -22z m39 -50 c28 -63 26 -68 -25 -68 -25 0 -45 3
-45 6 0 10 42 104 47 104 2 0 13 -19 23 -42z"/>
<path d="M4112 2183 l2 -118 3 98 c2 53 7 97 12 97 4 0 45 -43 90 -95 46 -52
85 -95 87 -95 2 0 3 53 2 118 l-2 117 -5 -102 -6 -103 -85 100 c-47 54 -88 99
-92 99 -5 1 -7 -52 -6 -116z"/>
<path d="M4370 2185 c0 -70 4 -115 10 -115 6 0 10 45 10 115 0 70 -4 115 -10
115 -6 0 -10 -45 -10 -115z"/>
<path d="M4458 2293 l42 -4 0 -110 c0 -66 4 -109 10 -109 6 0 10 43 10 109 l0
110 43 4 c23 2 -1 4 -53 4 -52 0 -76 -2 -52 -4z"/>
<path d="M4680 2296 c0 -2 -22 -54 -50 -115 -27 -61 -45 -111 -41 -111 4 0 16
18 26 40 18 40 18 40 75 40 57 0 57 0 75 -40 10 -22 22 -40 26 -40 5 0 -3 25
-16 57 -66 148 -78 173 -86 173 -5 0 -9 -2 -9 -4z m36 -73 c11 -27 21 -51 22
-55 2 -5 -20 -8 -48 -8 -28 0 -50 3 -48 8 2 4 11 28 22 55 10 26 22 47 26 47
4 0 16 -21 26 -47z"/>
<path d="M4830 2185 c0 -70 4 -115 10 -115 6 0 10 25 10 55 0 54 0 55 30 55
24 0 36 -9 61 -42 17 -24 34 -50 39 -58 5 -8 11 -12 14 -9 3 3 -10 29 -30 57
l-35 53 21 26 c26 33 25 39 -5 68 -18 19 -35 25 -70 25 l-45 0 0 -115z m106
84 c34 -28 9 -66 -50 -76 l-36 -6 0 53 0 53 36 -6 c20 -3 42 -11 50 -18z"/>
<path d="M5034 2185 c0 -66 1 -92 3 -57 2 34 2 88 0 120 -2 31 -3 3 -3 -63z"/>
<path d="M5124 2266 c-29 -29 -34 -41 -34 -81 0 -40 5 -52 34 -81 30 -30 40
-34 86 -34 43 0 56 4 80 29 81 81 32 201 -82 201 -44 0 -54 -4 -84 -34z m136
9 c37 -19 50 -43 50 -92 -1 -80 -78 -125 -150 -88 -36 19 -52 47 -52 91 0 82
78 127 152 89z"/>
<path d="M5470 2185 l0 -115 60 0 c72 0 114 19 135 60 19 37 19 73 -1 111 -19
39 -68 59 -139 59 l-55 0 0 -115z m163 65 c66 -74 5 -170 -108 -170 l-35 0 0
106 0 107 58 -6 c47 -5 62 -11 85 -37z"/>
<path d="M5720 2185 c0 -70 4 -115 10 -115 6 0 10 45 10 115 0 70 -4 115 -10
115 -6 0 -10 -45 -10 -115z"/>
<path d="M5890 2185 l0 -115 55 0 c75 0 118 19 138 63 9 19 17 43 17 52 0 9
-8 33 -17 52 -20 44 -63 63 -138 63 l-55 0 0 -115z m124 91 c41 -17 66 -51 66
-91 0 -60 -58 -105 -135 -105 l-35 0 0 105 0 105 35 0 c20 0 51 -6 69 -14z"/>
<path d="M6140 2185 c0 -70 4 -115 10 -115 6 0 10 45 10 115 0 70 -4 115 -10
115 -6 0 -10 -45 -10 -115z"/>
<path d="M6222 2183 c1 -65 3 -92 5 -60 l4 58 32 -3 c25 -2 40 -14 71 -56 50
-66 60 -60 13 9 -34 50 -34 52 -16 70 45 45 8 99 -68 99 l-43 0 2 -117z m86
91 c43 -30 12 -84 -50 -84 -26 0 -28 3 -28 43 0 24 3 47 7 50 11 12 48 7 71
-9z"/>
<path d="M6414 2185 c0 -66 1 -92 3 -57 2 34 2 88 0 120 -2 31 -3 3 -3 -63z"/>
<path d="M6498 2293 l42 -4 0 -110 c0 -66 4 -109 10 -109 6 0 10 43 10 110 l0
111 88 -3 87 -3 5 -110 6 -110 4 110 5 110 45 6 c25 3 -43 6 -150 6 -107 0
-176 -2 -152 -4z"/>
<path d="M6885 2278 c-64 -50 -65 -131 -4 -183 38 -31 100 -34 145 -6 67 41
67 151 1 191 -43 27 -107 26 -142 -2z m141 -22 c96 -96 -37 -238 -138 -147
-28 25 -33 36 -33 76 0 40 5 51 33 76 46 42 93 40 138 -5z"/>
<path d="M7220 2184 c0 -74 4 -113 10 -109 6 3 10 28 10 56 l0 49 44 0 c35 0
48 5 60 22 37 53 3 98 -74 98 l-50 0 0 -116z m98 90 c44 -31 17 -84 -44 -84
l-34 0 0 50 c0 48 1 50 28 50 15 0 38 -7 50 -16z"/>
<path d="M7390 2216 c0 -76 3 -87 26 -115 20 -25 34 -31 64 -31 81 0 101 30
98 152 l-1 83 -6 -87 c-5 -73 -10 -91 -30 -112 -32 -34 -74 -34 -106 -1 -23
22 -25 32 -25 110 0 50 -4 85 -10 85 -6 0 -10 -35 -10 -84z"/>
<path d="M7630 2185 l0 -115 48 0 c27 0 57 7 70 16 29 20 30 68 0 88 -17 12
-20 18 -10 28 7 7 12 24 12 39 0 36 -33 59 -82 59 l-38 0 0 -115z m98 78 c6
-9 12 -20 12 -23 0 -17 -29 -40 -57 -46 l-33 -6 0 52 0 53 33 -7 c17 -3 38
-14 45 -23z m16 -102 c34 -37 -4 -81 -70 -81 -22 0 -24 4 -24 50 l0 50 38 0
c26 0 45 -7 56 -19z"/>
<path d="M7810 2185 l0 -115 49 0 c55 0 101 28 101 61 0 11 -11 30 -25 43 -22
21 -23 25 -10 36 41 34 -2 90 -70 90 l-45 0 0 -115z m97 84 c32 -27 9 -64 -45
-75 l-32 -6 0 52 0 53 32 -7 c17 -3 37 -11 45 -17z m14 -99 c22 -13 25 -52 4
-70 -8 -6 -32 -14 -55 -17 l-40 -6 0 52 0 51 36 0 c19 0 44 -5 55 -10z"/>
<path d="M7990 2185 l0 -115 68 2 67 2 -57 3 -58 4 0 109 c0 67 -4 110 -10
110 -6 0 -10 -45 -10 -115z"/>
<path d="M8150 2185 c0 -70 4 -115 10 -115 6 0 10 45 10 115 0 70 -4 115 -10
115 -6 0 -10 -45 -10 -115z"/>
<path d="M8254 2267 c-30 -27 -37 -41 -38 -74 -1 -50 16 -84 54 -106 36 -22
110 -22 136 -1 19 15 19 16 -1 9 -11 -4 -39 -10 -62 -12 -39 -5 -46 -2 -79 31
-33 33 -36 40 -31 79 10 76 93 121 158 87 11 -6 19 -7 19 -1 0 14 -27 21 -76
21 -36 0 -51 -6 -80 -33z"/>
<path d="M8495 2278 c-64 -50 -65 -131 -4 -183 38 -31 100 -34 145 -6 67 41
67 151 1 191 -43 27 -107 26 -142 -2z m141 -22 c96 -96 -37 -238 -138 -147
-28 25 -33 36 -33 76 0 40 5 51 33 76 46 42 93 40 138 -5z"/>
</g>
</svg>
